<svg xmlns="http://www.w3.org/2000/svg" viewBox="0 0 311.7 84.1">
  <defs>
    <style>
      .cls-1{fill:#fdbd41}
    </style>
  </defs>
  <g id="Layer_2" data-name="Layer 2">
    <g id="Layer_1-2" data-name="Layer 1">
      <path class="cls-1"
            d="M0 0h41v4H0zM54 68.2L40.6 9H45l13.6 59.2zM58.2 73.3h37.3v4H58.3zM110.5 84.1a82.2 82.2 0 01-7.8-16.6 61.8 61.8 0 01-3.6-21q0-19 11.4-37.5h4.2a131.4 131.4 0 00-6 14.3 71.2 71.2 0 00-2.7 11 77.5 77.5 0 00-1 12.3q0 18.7 9.6 37.5zM128.6 11.7a97.5 97.5 0 017.6 21.3l-5.3 1.8a107.1 107.1 0 00-7.6-21.4zm59.9 1c-.3.7-1 1-2.1 1-8.4 28.2-21.5 45.5-46.6 56.5a37.7 37.7 0 00-3.8-4.4c24.5-10.4 37-26.4 45-55.6zM153.9 7a134.3 134.3 0 014.2 22.7l-5.6 1A131.5 131.5 0 00148.3 8zM201.2 84.1H197q9.6-18.8 9.6-37.5a78.8 78.8 0 00-1-12.2 73.6 73.6 0 00-2.6-11.1A126.5 126.5 0 00197 9h4.2q11.3 18.5 11.3 37.5a63.4 63.4 0 01-3.4 20.7 78.5 78.5 0 01-8 16.9zM216 73.3h37.3v4H216zM253 68.2L266.4 9h4.7l-13.6 59.2zM270.7 0h41v4h-41z"/>
    </g>
  </g>
</svg>
