<svg height="512pt" viewBox="0 0 512 512" width="512pt" xmlns="http://www.w3.org/2000/svg">
    <path d="M475.07 0H36.93A36.92 36.92 0 000 36.93v438.14A36.92 36.92 0 0036.93 512h438.14A36.92 36.92 0 00512 475.07V36.93A36.92 36.92 0 00475.07 0zM181.61 387h-62.35V199.43h62.35zm-31.17-213.19h-.4c-20.93 0-34.46-14.4-34.46-32.4 0-18.4 13.94-32.41 35.27-32.41 21.33 0 34.45 14 34.86 32.41 0 18-13.53 32.4-35.27 32.4zM406.42 387h-62.34V286.65c0-25.22-9.03-42.42-31.58-42.42-17.23 0-27.48 11.6-32 22.8-1.64 4.01-2.04 9.61-2.04 15.22V387H216.1s.82-169.98 0-187.57h62.35v26.55c8.28-12.78 23.1-30.96 56.18-30.96 41.02 0 71.78 26.81 71.78 84.43zm0 0"/>
</svg>
