<svg height="512" viewBox="0 0 24 24" width="512" xmlns="http://www.w3.org/2000/svg">
    <path d="M4.72 12.88c-.61 1.2.08 1.78 1.67 2.77 1.35.83 3.22 1.14 4.42 1.26-.5.47 1.75-1.7-4.73 4.54-1.37 1.32.84 3.43 2.21 2.14L12.02 20c1.43 1.37 2.79 2.68 3.72 3.6 1.37 1.29 3.58-.8 2.23-2.15l-4.74-4.54c1.21-.12 3.05-.44 4.38-1.26 1.59-.99 2.29-1.56 1.68-2.77-.36-.68-1.35-1.26-2.66-.27 0 0-1.77 1.36-4.62 1.36S7.38 12.6 7.38 12.6c-1.31-.99-2.3-.41-2.66.27z"/>
    <path d="M12 12.14a6.2 6.2 0 006.32-6.06A6.2 6.2 0 0012 0a6.2 6.2 0 00-6.32 6.08A6.2 6.2 0 0012 12.14zm0-9.06c1.7 0 3.1 1.34 3.1 3 0 1.64-1.4 2.98-3.1 2.98S8.9 7.72 8.9 6.08c0-1.66 1.39-3 3.1-3z"/>
</svg>
