<svg id="Capa_1" enable-background="new 0 0 511.971 511.971" height="512" viewBox="0 0 511.971 511.971" width="512"
     xmlns="http://www.w3.org/2000/svg">
    <g>
        <path d="m257.069 53.166c14.972-6.088 29.444-5.435 43.016 1.945 8.887 4.832 17.126 8.592 24.488 11.175 3.917 1.372 8.192-.692 9.561-4.594 1.371-3.909-.686-8.189-4.594-9.561-6.607-2.318-14.106-5.749-22.289-10.198-17.463-9.494-36.77-10.415-55.832-2.662-3.837 1.561-5.683 5.936-4.122 9.772 1.559 3.838 5.935 5.683 9.772 4.123z"/>
        <path d="m257.069 85.696c14.971-6.089 29.444-5.434 43.017 1.946 8.885 4.83 17.124 8.59 24.486 11.175 3.917 1.372 8.191-.691 9.562-4.594 1.371-3.908-.685-8.188-4.593-9.561-6.609-2.319-14.108-5.751-22.29-10.198-17.463-9.494-36.767-10.414-55.832-2.663-3.837 1.56-5.683 5.936-4.122 9.772 1.559 3.839 5.935 5.688 9.772 4.123z"/>
        <path d="m257.069 118.227c14.971-6.089 29.444-5.434 43.016 1.946 8.881 4.829 17.12 8.588 24.487 11.175 3.917 1.372 8.191-.691 9.562-4.594 1.371-3.908-.685-8.188-4.593-9.561-6.613-2.32-14.113-5.752-22.29-10.198-17.463-9.494-36.767-10.414-55.832-2.663-3.837 1.56-5.683 5.936-4.122 9.772 1.559 3.837 5.935 5.687 9.772 4.123z"/>
        <path d="m257.069 150.758c14.972-6.088 29.444-5.435 43.016 1.945 8.887 4.832 17.126 8.592 24.488 11.175 3.917 1.372 8.192-.692 9.561-4.594 1.371-3.909-.686-8.189-4.594-9.561-6.607-2.318-14.106-5.749-22.289-10.198-17.463-9.494-36.77-10.415-55.832-2.662-3.837 1.561-5.683 5.936-4.122 9.772 1.559 3.838 5.935 5.683 9.772 4.123z"/>
        <path d="m124.319 66.711c4.503 0 21.986-8.889 26.971-11.6 13.575-7.38 28.047-8.033 43.017-1.945 3.838 1.563 8.213-.285 9.772-4.122 1.561-3.837-.285-8.212-4.122-9.772-19.062-7.754-38.369-6.833-55.832 2.662-8.185 4.45-15.684 7.881-22.288 10.198-3.909 1.371-5.966 5.651-4.595 9.56 1.083 3.087 3.98 5.019 7.077 5.019z"/>
        <path d="m126.802 98.817c7.361-2.584 15.601-6.343 24.487-11.175 13.573-7.379 28.047-8.033 43.017-1.946 3.842 1.565 8.213-.284 9.772-4.122 1.561-3.837-.285-8.213-4.122-9.772-19.063-7.752-38.37-6.833-55.831 2.663-8.185 4.448-15.684 7.88-22.29 10.198-3.908 1.372-5.965 5.652-4.594 9.561 1.374 3.91 5.655 5.964 9.561 4.593z"/>
        <path d="m126.802 131.348c7.366-2.585 15.605-6.345 24.487-11.175 13.573-7.379 28.047-8.032 43.017-1.946 3.842 1.564 8.213-.285 9.772-4.122 1.561-3.837-.285-8.213-4.122-9.772-19.062-7.752-38.369-6.832-55.832 2.663-8.179 4.447-15.678 7.879-22.289 10.198-3.908 1.372-5.965 5.652-4.594 9.561 1.374 3.909 5.655 5.963 9.561 4.593z"/>
        <path d="m126.801 163.878c7.361-2.582 15.601-6.342 24.488-11.175 13.575-7.38 28.047-8.033 43.017-1.945 3.838 1.564 8.213-.285 9.772-4.122 1.561-3.837-.285-8.212-4.122-9.772-19.062-7.754-38.369-6.833-55.832 2.662-8.185 4.45-15.684 7.881-22.288 10.198-3.909 1.371-5.966 5.651-4.595 9.56 1.373 3.911 5.654 5.964 9.56 4.594z"/>
        <path d="m373.113 336.647c-30.459 0-55.239 24.78-55.239 55.238v21.167 43.681c0 30.459 24.78 55.238 55.239 55.238h25.712c30.459 0 55.239-24.779 55.239-55.238v-43.681-21.167c0-30.458-24.78-55.238-55.239-55.238h-5.355v-32.249c0-26.478-21.541-48.019-48.019-48.019s-48.019 21.541-48.019 48.019v20.122c0 18.206-14.812 33.019-33.019 33.019s-33.018-14.812-33.018-33.019v-67.28c10.29-2.318 19.169-9.31 23.705-19.111 1.052-2.273 3.494-3.742 6.223-3.742h112.381c10.898 0 19.765-8.866 19.765-19.765v-68.565c0-4.143-3.357-7.5-7.5-7.5s-7.5 3.357-7.5 7.5v68.565c0 2.627-2.138 4.765-4.765 4.765h-112.38c-8.553 0-16.339 4.885-19.836 12.442-3.163 6.835-10.068 11.251-17.592 11.251s-14.43-4.416-17.592-11.251c-3.499-7.559-11.285-12.442-19.837-12.442h-36.147c-4.143 0-7.5 3.357-7.5 7.5s3.357 7.5 7.5 7.5h36.147c2.729 0 5.172 1.469 6.224 3.742 4.535 9.801 13.415 16.793 23.705 19.111v67.279c0 26.478 21.541 48.019 48.018 48.019 26.478 0 48.019-21.541 48.019-48.019v-20.122c0-18.206 14.812-33.019 33.019-33.019s33.019 14.812 33.019 33.019v32.249h-5.358zm-40.239 55.238c0-22.188 18.052-40.238 40.239-40.238h5.356v30.63c-8.821 3.103-15.164 11.514-15.164 21.383v1.893h-30.432v-13.668zm106.19 64.847c0 22.188-18.051 40.238-40.239 40.238h-25.712c-22.188 0-40.239-18.051-40.239-40.238v-36.181h31.312c2.692 9.516 11.582 16.402 21.784 16.402 10.17 0 19.083-6.852 21.784-16.402h31.311v36.181zm-45.595-105.085h5.355c22.188 0 40.239 18.051 40.239 40.238v13.667h-30.431v-1.893c0-9.869-6.343-18.28-15.164-21.383v-30.629zm-7.5 44.348c4.226 0 7.664 3.438 7.664 7.664v10.631c0 4.226-3.438 7.664-7.664 7.664s-7.664-3.438-7.664-7.664c0-4.07 0-6.273 0-10.631 0-4.225 3.439-7.664 7.664-7.664z"/>
        <path d="m57.907 53.797v160.825c0 10.898 8.866 19.765 19.765 19.765h37.648c4.143 0 7.5-3.357 7.5-7.5s-3.357-7.5-7.5-7.5h-37.649c-2.627 0-4.765-2.138-4.765-4.765v-160.825c0-2.627 2.138-4.764 4.765-4.764h10.592v135.355c0 11.819 10.311 21.192 22.192 19.795 19.921-2.354 40.093-15.581 47.964-18.425 18.901-6.829 38.1-.436 53.849 11.797 7.87 6.115 18.968 6.113 26.84 0 11.802-9.17 35.418-22.478 60.978-8.58 11.918 6.479 27.424 13.623 40.835 15.208 11.863 1.396 22.192-7.954 22.192-19.795v-135.355h10.592c2.627 0 4.765 2.137 4.765 4.764v57.26c0 4.143 3.357 7.5 7.5 7.5s7.5-3.357 7.5-7.5v-57.26c0-10.897-8.866-19.764-19.765-19.764h-10.592v-2.826c0-9.173-9.863-14.691-17.581-10.4-.877.487-1.83.678-2.822.559-6.192-.727-17.37-3.657-35.459-13.492-27.87-15.152-57.888-7.21-81.562 13.378-23.692-20.603-53.706-28.523-81.564-13.379-18.089 9.835-29.267 12.766-35.458 13.492-.995.116-1.946-.072-2.825-.56-7.742-4.295-17.579 1.249-17.579 10.402v2.826h-10.592c-10.898 0-19.764 8.866-19.764 19.764zm175.281-19.104c7.533-7.132 35.821-30.541 66.896-13.643 11.293 6.14 35.632 17.91 48.028 14.743v148.595c0 2.949-2.551 5.234-5.434 4.897-33.053-3.901-57.586-43.091-109.491-6.021v-148.571zm-129.925 1.101c12.424 3.166 36.784-8.63 48.026-14.743 31.346-17.043 59.347 6.368 66.898 13.616v148.598c-52.232-37.294-76.732 2.156-109.492 6.021-2.832.341-5.433-1.907-5.433-4.897.001-18.281.001-143.882.001-148.595z"/>
    </g>
</svg>