<svg id="Layer_1" enable-background="new 0 0 512 512" height="512" viewBox="0 0 512 512" width="512"
     xmlns="http://www.w3.org/2000/svg">
    <g>
        <path d="m503.458 11.554c-.369-3.718-3.417-6.597-7.149-6.754-1.146-.048-116.073-4.8-240.309-4.8-33.082 0-68.422.335-105.039.995-4.142.075-7.438 3.493-7.363 7.634.074 4.095 3.417 7.365 7.496 7.365.045 0 .092 0 .138-.001 36.527-.659 71.776-.993 104.768-.993 106.977 0 207.033 3.533 233.118 4.529 2.783 32.255 14.049 180.051 3.205 346.92-26.771.996-129.317 4.53-236.323 4.53-106.994 0-209.55-3.534-236.323-4.53-10.844-166.869.422-314.666 3.205-346.921 13.583-.521 47.209-1.731 91.121-2.762 4.141-.097 7.419-3.533 7.322-7.674-.097-4.142-3.56-7.423-7.674-7.322-57.594 1.353-97.563 3.014-97.96 3.03-3.732.157-6.781 3.036-7.149 6.754-.192 1.938-18.986 196.189-.006 405.14.34 3.744 3.399 6.657 7.155 6.815.19.008 19.354.806 49.986 1.738.078.002.155.003.232.003 4.036 0 7.369-3.209 7.492-7.272.126-4.14-3.128-7.599-7.269-7.725-20.057-.61-35.175-1.163-43.243-1.472-.796-9.132-1.521-18.232-2.178-27.285 29.157 1.073 130.078 4.481 235.287 4.481s206.131-3.408 235.288-4.481c-.658 9.053-1.382 18.152-2.178 27.284-26.1.997-126.134 4.528-233.109 4.528-47.816 0-99.424-.688-153.389-2.043-.064-.002-.128-.002-.192-.002-4.055 0-7.392 3.235-7.494 7.312-.104 4.141 3.168 7.582 7.309 7.686 34.129.857 67.32 1.448 99.212 1.767-23.62 46.926-59.083 69.896-59.454 70.133-2.822 1.784-4.125 5.219-3.196 8.425.929 3.207 3.866 5.414 7.204 5.414h128.883c4.142 0 7.5-3.358 7.5-7.5s-3.358-7.5-7.5-7.5h-107.291c14.579-13.146 35.27-35.822 50.433-68.829 12.896.092 25.563.138 37.976.138 12.795 0 25.491-.05 37.974-.141 15.164 33.009 35.855 55.686 50.435 68.832h-34.304c-4.142 0-7.5 3.358-7.5 7.5s3.358 7.5 7.5 7.5h55.895c3.338 0 6.275-2.207 7.204-5.414s-.374-6.641-3.196-8.425c-.379-.24-35.769-23.016-59.46-70.137 101.399-1.026 184.785-4.474 185.761-4.515 3.756-.158 6.815-3.071 7.155-6.815 18.981-208.951.187-403.202-.006-405.14z"/>
        <path d="m267.278 86.085c-1.855-.948-46.07-23.372-100.961-37.404-1.219-.312-2.496-.312-3.715 0-54.891 14.033-99.105 36.457-100.961 37.404-2.509 1.282-4.088 3.862-4.088 6.679s1.579 5.397 4.088 6.679c.734.375 8.106 4.115 20.149 9.367-.208 11.76-.708 45.91-.181 78.452-.1 2.498.179 11.769 8.732 21.143 12.945 14.186 37.88 21.378 74.114 21.378s61.169-7.193 74.114-21.378c8.554-9.374 8.833-18.645 8.733-21.143.526-32.538.026-66.684-.182-78.448 12.049-5.255 19.424-8.997 20.158-9.372 2.509-1.282 4.088-3.862 4.088-6.679s-1.579-5.396-4.088-6.678zm-34.962 101.908c0 .765-.22 5.534-5.297 10.802-7.03 7.294-23.592 15.99-62.565 15.99s-55.535-8.695-62.565-15.99c-5.077-5.268-5.296-10.039-5.296-10.803.042-.311.023-.349.018-.717-.458-27.986-.148-57.235.079-72.222 4.657 1.873 9.685 3.826 15.03 5.803-.387 10.99-1.029 36.57.223 61.157.204 4.007 3.517 7.119 7.484 7.119.128 0 .258-.003.388-.01 4.137-.21 7.32-3.735 7.109-7.872-1.071-21.02-.722-42.822-.365-55.139 11.179 3.781 23.324 7.484 36.044 10.735.609.156 1.234.234 1.858.234s1.248-.078 1.858-.234c25.257-6.457 48.253-14.69 65.902-21.791.227 14.986.537 44.229.079 72.218-.007.371-.025.408.016.72zm-67.857-66.157c-8.158-2.125-16.093-4.451-23.679-6.863 14.217-5.356 25.572-8.608 25.731-8.653 3.983-1.134 6.294-5.282 5.162-9.266-1.133-3.983-5.278-6.295-9.264-5.163-.916.26-21.803 6.238-43.25 15.682-14.959-5.475-27.582-10.821-36.491-14.811 16.951-7.596 47.361-20.102 81.791-29.07 34.393 8.958 64.827 21.474 81.792 29.074-16.951 7.596-47.361 20.102-81.792 29.07z"/>
        <path d="m440.947 96.606c4.142 0 7.5-3.358 7.5-7.5s-3.358-7.5-7.5-7.5h-121.788c-4.142 0-7.5 3.358-7.5 7.5s3.358 7.5 7.5 7.5z"/>
        <path d="m291.659 134.106c0 4.142 3.358 7.5 7.5 7.5h141.789c4.142 0 7.5-3.358 7.5-7.5s-3.358-7.5-7.5-7.5h-141.789c-4.142 0-7.5 3.358-7.5 7.5z"/>
        <path d="m299.159 186.606h141.789c4.142 0 7.5-3.358 7.5-7.5s-3.358-7.5-7.5-7.5h-141.789c-4.142 0-7.5 3.358-7.5 7.5s3.358 7.5 7.5 7.5z"/>
        <path d="m299.159 231.606h141.789c4.142 0 7.5-3.358 7.5-7.5s-3.358-7.5-7.5-7.5h-141.789c-4.142 0-7.5 3.358-7.5 7.5s3.358 7.5 7.5 7.5z"/>
        <path d="m440.947 261.606h-63.939c-4.142 0-7.5 3.358-7.5 7.5s3.358 7.5 7.5 7.5h63.939c4.142 0 7.5-3.358 7.5-7.5s-3.358-7.5-7.5-7.5z"/>
        <path d="m70.511 269.106c0 4.142 3.358 7.5 7.5 7.5h263.744c4.142 0 7.5-3.358 7.5-7.5s-3.358-7.5-7.5-7.5h-263.744c-4.142 0-7.5 3.358-7.5 7.5z"/>
        <path d="m440.947 306.606h-293.516c-4.142 0-7.5 3.358-7.5 7.5s3.358 7.5 7.5 7.5h293.517c4.142 0 7.5-3.358 7.5-7.5s-3.359-7.5-7.501-7.5z"/>
        <path d="m78.011 306.606c-4.142 0-7.5 3.358-7.5 7.5s3.358 7.5 7.5 7.5h34.816c4.142 0 7.5-3.358 7.5-7.5s-3.358-7.5-7.5-7.5z"/>
    </g>
</svg>